<svg id="Layer_1" data-name="Layer 1" xmlns="http://www.w3.org/2000/svg" viewBox="0 0 267.66 87.7"><defs><style>.cls-1{fill:#070707;}.cls-2{fill:#1d1d1b;}</style></defs><title>guns</title><path class="cls-1" d="M17,87.2c21.54-2.67,35.38-10.27,48.85-17.67,17-9.37,34.68-19.05,68-19.05s50.94,9.68,68,19.05c13.47,7.4,27.31,15,48.85,17.67Z"/><path class="cls-2" d="M133.83,51c33.18,0,50.75,9.65,67.75,19,12.1,6.65,24.5,13.46,42.49,16.73H23.59C41.58,83.43,54,76.62,66.08,70c17-9.34,34.57-19,67.75-19m0-1C67.55,50,64,87.7,0,87.7H267.66c-64,0-67.55-37.72-133.83-37.72Z"/></svg>