<svg id="Layer_1" data-name="Layer 1" xmlns="http://www.w3.org/2000/svg" viewBox="0 0 267.66 87.7"><defs><style>.cls-1{fill:#070707;}.cls-2{fill:#1d1d1b;}</style></defs><title>guns</title><path class="cls-1" d="M11.37,87.2c24.92-4.53,40-23.77,54.63-42.46C83,23,100.64.5,133.83.5S184.63,23,201.66,44.74c14.64,18.69,29.7,37.93,54.63,42.46Z"/><path class="cls-2" d="M133.83,1a62.16,62.16,0,0,1,39.54,13.71C184,23,192.77,34.2,201.27,45.05c13.8,17.62,28,35.74,50.45,41.65H15.94c22.46-5.91,36.65-24,50.45-41.65C74.89,34.2,83.67,23,94.29,14.71A62.14,62.14,0,0,1,133.83,1m0-1C67.55,0,64,87.7,0,87.7H267.66c-64,0-67.55-87.7-133.83-87.7Z"/></svg>