<svg id="Layer_1" data-name="Layer 1" xmlns="http://www.w3.org/2000/svg" viewBox="0 0 267.66 87.7"><defs><style>.cls-1{fill:#070707;}.cls-2{fill:#1d1d1b;}</style></defs><title>guns</title><path class="cls-1" d="M25.25,87.2c16.92-1.44,28.83-4.25,40.47-7,17.07-4,34.74-8.18,68.11-8.18s51,4.16,68.11,8.18c11.64,2.73,23.55,5.54,40.47,7Z"/><path class="cls-2" d="M133.83,72.54c33.32,0,50.95,4.15,68,8.16a279.86,279.86,0,0,0,31.11,6H34.72a279.86,279.86,0,0,0,31.11-6c17-4,34.68-8.16,68-8.16m0-1C67.55,71.54,64,87.7,0,87.7H267.66c-64,0-67.55-16.16-133.83-16.16Z"/></svg>