<?xml version="1.0" encoding="utf-8"?>
<!-- Generator: Adobe Illustrator 22.1.0, SVG Export Plug-In . SVG Version: 6.00 Build 0)  -->
<svg version="1.1" id="Layer_1" xmlns="http://www.w3.org/2000/svg" xmlns:xlink="http://www.w3.org/1999/xlink" x="0px" y="0px"
	 viewBox="0 0 847 100" style="enable-background:new 0 0 847 100;" xml:space="preserve">
<style type="text/css">
	.st0{fill:#B30000;}
	.st1{fill:#E34A33;}
</style>
<g>
	<path class="st0" d="M16,0c8,0,8,0,16,0s8,0,16,0c8,0,8,0,16,0c8,0,8,0,16,0s8,0,16,0s8,0,16,0c8,0,8,0,16,0c8,0,8,0,16,0s8,0,16,0
		s8,0,16,0c8,0,8,0,16,0c8,0,8,0,16,0s8,0,16,0s8,0,16,0c8,0,8,0,16,0c8,0,8,0,16,0s8,0,16,0s8,0,16,0c8,0,8,0,16,0c8,0,8,0,16,0
		s8,0,16,0s8,0,16,0c8,0,8,0,16,0c8,0,8,0,16,0s8,0,16,0s8,0,16,0c8,0,8,0,16,0c8,0,8,0,16,0s8,0,16,0s8,0,16,0c8,0,8,0,16,0
		c8,0,8,0,16,0s8,0,16,0c8,0,8,0,16,0c8,0,8,0,16,0c8,0,8,0,16,0s8,0,16,0c8,0,8,0,16,0c8,0,8,0,16,0c8,0,8,0,16,0s8,0,16,0
		c8,0,8,0,16,0c8,0,8,0,16,0c8,0,8,0,16,0s8,0,16,0c8,0,8,0,16,0c8,0,8,0,16,0c8,0,8,0,16,0s8,0,16,0c8,0,8,0,16,0c8,0,8,0,16,0
		c8,0,8,0,16,0l0,0c-8,0-8,15.7-16,15.7c-8,0-8,8.8-16,8.8c-8,0-8,3.3-16,3.3c-8,0-8-21.3-16-21.3s-8,4.2-16,4.2c-8,0-8,3.8-16,3.8
		c-8,0-8-10.1-16-10.1c-8,0-8-3-16-3s-8,9.1-16,9.1c-8,0-8-6.2-16-6.2c-8,0-8,5.6-16,5.6c-8,0-8-5.4-16-5.4s-8-1.2-16-1.2
		c-8,0-8-1.5-16-1.5c-8,0-8,0.5-16,0.5c-8,0-8-1.7-16-1.7s-8,0.8-16,0.8c-8,0-8-0.2-16-0.2c-8,0-8,5.7-16,5.7c-8,0-8-4.5-16-4.5
		s-8,0.2-16,0.2c-8,0-8-1.1-16-1.1c-8,0-8,0.5-16,0.5s-8,0-16,0s-8,2-16,2c-8,0-8-2.1-16-2.1c-8,0-8,5-16,5s-8-4.8-16-4.8
		s-8,1.1-16,1.1c-8,0-8-0.5-16-0.5c-8,0-8-1.5-16-1.5s-8,1.7-16,1.7s-8-2.4-16-2.4c-8,0-8,4.5-16,4.5c-8,0-8-2.6-16-2.6
		s-8-0.8-16-0.8s-8-1.4-16-1.4c-8,0-8,0-16,0c-8,0-8,0.6-16,0.6s-8-0.6-16-0.6s-8,0-16,0c-8,0-8,1.2-16,1.2c-8,0-8-1.2-16-1.2
		s-8,0.6-16,0.6s-8-0.6-16-0.6c-8,0-8,1.5-16,1.5c-8,0-8-1.2-16-1.2s-8-0.3-16-0.3s-8,0-16,0c-8,0-8,0-16,0c-8,0-8,0-16,0
		s-8,3.3-16,3.3S8,0,0,0C8,0,8,0,16,0z"/>
	<path class="st1" d="M16,3.3c8,0,8-3.3,16-3.3s8,0,16,0c8,0,8,0,16,0c8,0,8,0,16,0s8,0.3,16,0.3s8,1.2,16,1.2c8,0,8-1.5,16-1.5
		c8,0,8,0.6,16,0.6s8-0.6,16-0.6s8,1.2,16,1.2c8,0,8-1.2,16-1.2c8,0,8,0,16,0s8,0.6,16,0.6s8-0.6,16-0.6c8,0,8,0,16,0
		c8,0,8,1.4,16,1.4s8,0.8,16,0.8s8,2.6,16,2.6c8,0,8-4.5,16-4.5c8,0,8,2.4,16,2.4s8-1.7,16-1.7s8,1.5,16,1.5c8,0,8,0.5,16,0.5
		c8,0,8-1.1,16-1.1s8,4.8,16,4.8s8-5,16-5c8,0,8,2.1,16,2.1c8,0,8-2,16-2s8,0,16,0s8-0.5,16-0.5c8,0,8,1.1,16,1.1c8,0,8-0.2,16-0.2
		s8,4.5,16,4.5c8,0,8-5.7,16-5.7c8,0,8,0.2,16,0.2c8,0,8-0.8,16-0.8s8,1.7,16,1.7c8,0,8-0.5,16-0.5c8,0,8,1.5,16,1.5
		c8,0,8,1.2,16,1.2s8,5.4,16,5.4c8,0,8-5.6,16-5.6c8,0,8,6.2,16,6.2c8,0,8-9.1,16-9.1s8,3,16,3c8,0,8,10.1,16,10.1c8,0,8-3.8,16-3.8
		c8,0,8-4.2,16-4.2s8,21.3,16,21.3c8,0,8-3.3,16-3.3c8,0,8-8.8,16-8.8c8,0,8-15.7,16-15.7l0,0c-8,0-8,100-16,100
		c-8,0-8-36.3-16-36.3c-8,0-8-7.6-16-7.6c-8,0-8-39-16-39s-8-2.1-16-2.1c-8,0-8,16-16,16c-8,0-8-21.1-16-21.1c-8,0-8-7.9-16-7.9
		s-8,15.7-16,15.7c-8,0-8-9.7-16-9.7c-8,0-8,10.9-16,10.9c-8,0-8-11.8-16-11.8s-8-2.1-16-2.1c-8,0-8-2.1-16-2.1c-8,0-8,0.3-16,0.3
		c-8,0-8-2.4-16-2.4s-8,2.9-16,2.9c-8,0-8-2.7-16-2.7c-8,0-8,14.2-16,14.2c-8,0-8-6.3-16-6.3s-8-3.6-16-3.6c-8,0-8-3.6-16-3.6
		c-8,0-8,0.6-16,0.6s-8,4.2-16,4.2s-8,3.8-16,3.8c-8,0-8-5.6-16-5.6c-8,0-8,5.9-16,5.9s-8-7.9-16-7.9s-8,6.6-16,6.6c-8,0-8-3-16-3
		c-8,0-8-3.3-16-3.3s-8,1.5-16,1.5s-8-3.9-16-3.9c-8,0-8,8.9-16,8.9c-8,0-8-6.8-16-6.8s-8-0.9-16-0.9s-8-1.8-16-1.8c-8,0-8,0-16,0
		c-8,0-8,2.7-16,2.7s-8-2.7-16-2.7s-8,0-16,0c-8,0-8,2.6-16,2.6c-8,0-8-2.6-16-2.6s-8,2.1-16,2.1s-8-2.1-16-2.1c-8,0-8,3.5-16,3.5
		c-8,0-8-2.6-16-2.6s-8-0.9-16-0.9s-8,0-16,0c-8,0-8,0-16,0c-8,0-8,0-16,0s-8,8.3-16,8.3S8,0,0,0C8,0,8,3.3,16,3.3z"/>
</g>
</svg>
